<mxfile host="Electron" agent="Mozilla/5.0 (Windows NT 10.0; Win64; x64) AppleWebKit/537.36 (KHTML, like Gecko) draw.io/24.7.5 Chrome/126.0.6478.183 Electron/31.3.0 Safari/537.36" version="24.7.5" pages="2">
  <diagram name="Page-1" id="SjaHX0SKNCmMPlMpZnLW">
    <mxGraphModel dx="6253" dy="4174" grid="1" gridSize="10" guides="1" tooltips="1" connect="1" arrows="1" fold="1" page="1" pageScale="1" pageWidth="827" pageHeight="1169" math="0" shadow="0">
      <root>
        <mxCell id="0" />
        <mxCell id="1" parent="0" />
        <mxCell id="PyB6T44rJo8ZGuRNi5BV-4" value="&lt;b&gt;&lt;font style=&quot;font-size: 22px;&quot;&gt;PNR&lt;/font&gt;&lt;br&gt;&lt;br&gt;&lt;/b&gt;&lt;div&gt;&lt;b&gt;&lt;font style=&quot;font-size: 15px;&quot;&gt;&lt;u&gt;Message Types&lt;/u&gt;&lt;/font&gt;&lt;/b&gt;&lt;/div&gt;&lt;div&gt;&lt;ul&gt;&lt;li&gt;PACS.008&lt;/li&gt;&lt;li&gt;PACS.009&lt;/li&gt;&lt;li&gt;PACS.009COV&lt;/li&gt;&lt;li&gt;MT910&lt;/li&gt;&lt;li&gt;MT940&lt;/li&gt;&lt;li&gt;MT950&lt;/li&gt;&lt;/ul&gt;&lt;/div&gt;" style="rounded=1;whiteSpace=wrap;html=1;" parent="1" vertex="1">
          <mxGeometry x="-210" y="-660" width="320" height="320" as="geometry" />
        </mxCell>
        <mxCell id="PyB6T44rJo8ZGuRNi5BV-5" value="&lt;b&gt;&lt;font style=&quot;font-size: 22px;&quot;&gt;Serbest Bölge = 612 Şube&lt;/font&gt;&lt;br&gt;&lt;/b&gt;&lt;div&gt;&lt;br&gt;&lt;/div&gt;" style="rounded=1;whiteSpace=wrap;html=1;" parent="1" vertex="1">
          <mxGeometry x="-210" y="-260" width="320" height="320" as="geometry" />
        </mxCell>
        <mxCell id="PyB6T44rJo8ZGuRNi5BV-7" value="&lt;span style=&quot;font-size: 22px;&quot;&gt;&lt;b&gt;&lt;strike&gt;Bahreyn Yok&lt;/strike&gt;&lt;/b&gt;&lt;/span&gt;" style="rounded=1;whiteSpace=wrap;html=1;" parent="1" vertex="1">
          <mxGeometry x="150" y="-660" width="320" height="320" as="geometry" />
        </mxCell>
        <mxCell id="PyB6T44rJo8ZGuRNi5BV-9" value="&lt;b&gt;&lt;font style=&quot;font-size: 22px;&quot;&gt;AHL&lt;/font&gt;&lt;br&gt;&lt;/b&gt;" style="rounded=1;whiteSpace=wrap;html=1;" parent="1" vertex="1">
          <mxGeometry x="150" y="-260" width="320" height="320" as="geometry" />
        </mxCell>
        <mxCell id="PyB6T44rJo8ZGuRNi5BV-10" value="&lt;b&gt;&lt;font style=&quot;font-size: 22px;&quot;&gt;Saklama Şube = Şube 1111&lt;br&gt;&lt;/font&gt;&lt;/b&gt;(Sadece Gidende Özel Bir Durumu Olabilir, Gelende Olmayabilir)" style="rounded=1;whiteSpace=wrap;html=1;" parent="1" vertex="1">
          <mxGeometry x="510" y="-260" width="320" height="320" as="geometry" />
        </mxCell>
        <mxCell id="PyB6T44rJo8ZGuRNi5BV-11" value="&lt;b&gt;&lt;font style=&quot;font-size: 22px;&quot;&gt;Haciz ve Resmi Kurum İşlemleri&lt;/font&gt;&lt;/b&gt;" style="rounded=1;whiteSpace=wrap;html=1;" parent="1" vertex="1">
          <mxGeometry x="870" y="-260" width="320" height="320" as="geometry" />
        </mxCell>
        <mxCell id="PyB6T44rJo8ZGuRNi5BV-12" value="&lt;b&gt;&lt;font style=&quot;font-size: 18px;&quot;&gt;Kesinleşenler&lt;/font&gt;&lt;/b&gt;" style="text;html=1;align=center;verticalAlign=middle;whiteSpace=wrap;rounded=0;" parent="1" vertex="1">
          <mxGeometry x="110" y="-740" width="280" height="40" as="geometry" />
        </mxCell>
        <mxCell id="PyB6T44rJo8ZGuRNi5BV-13" value="&lt;b&gt;&lt;font style=&quot;font-size: 18px;&quot;&gt;Bilinmeyenler&lt;/font&gt;&lt;/b&gt;" style="text;html=1;align=center;verticalAlign=middle;whiteSpace=wrap;rounded=0;" parent="1" vertex="1">
          <mxGeometry x="360" y="-300" width="280" height="40" as="geometry" />
        </mxCell>
        <mxCell id="TMzkgg3_MQ0NlH0lSg8t-7" value="Preparation Layer" style="swimlane;whiteSpace=wrap;html=1;" parent="1" vertex="1">
          <mxGeometry x="-350" y="220" width="3240" height="3020" as="geometry" />
        </mxCell>
        <mxCell id="PyB6T44rJo8ZGuRNi5BV-1" value="" style="shape=cylinder3;whiteSpace=wrap;html=1;boundedLbl=1;backgroundOutline=1;size=15;rotation=90;" parent="TMzkgg3_MQ0NlH0lSg8t-7" vertex="1">
          <mxGeometry x="460" y="1150" width="538.44" height="910" as="geometry" />
        </mxCell>
        <mxCell id="PyB6T44rJo8ZGuRNi5BV-2" value="&lt;b style=&quot;font-size: 22px;&quot;&gt;Swift-Core Message Claim Queue&lt;/b&gt;" style="text;html=1;align=center;verticalAlign=middle;whiteSpace=wrap;rounded=0;" parent="TMzkgg3_MQ0NlH0lSg8t-7" vertex="1">
          <mxGeometry x="428.78" y="1580" width="544.22" height="30" as="geometry" />
        </mxCell>
        <mxCell id="DRLnUaCcKrrRja5PIx_H-2" value="&lt;b&gt;&lt;font style=&quot;font-size: 22px;&quot;&gt;DB Storage&lt;br&gt;(Unique mesaj id pk yapılacak.)&lt;/font&gt;&lt;/b&gt;" style="shape=cylinder3;whiteSpace=wrap;html=1;boundedLbl=1;backgroundOutline=1;size=15;" parent="TMzkgg3_MQ0NlH0lSg8t-7" vertex="1">
          <mxGeometry x="2413" y="1510" width="460" height="200" as="geometry" />
        </mxCell>
        <mxCell id="DRLnUaCcKrrRja5PIx_H-3" value="&lt;b&gt;&lt;font style=&quot;font-size: 22px;&quot;&gt;Incoming Swift Message Listener&lt;/font&gt;&lt;br&gt;&lt;br&gt;&lt;/b&gt;&lt;div&gt;&lt;b&gt;&lt;font style=&quot;font-size: 15px;&quot;&gt;&lt;u&gt;Message Types&lt;/u&gt;&lt;/font&gt;&lt;/b&gt;&lt;/div&gt;&lt;div&gt;&lt;ul&gt;&lt;li&gt;PACS.008&lt;/li&gt;&lt;li&gt;PACS.009&lt;/li&gt;&lt;li&gt;PACS.009COV&lt;/li&gt;&lt;li&gt;MT910&lt;/li&gt;&lt;li&gt;MT940&lt;/li&gt;&lt;li&gt;MT950&lt;/li&gt;&lt;/ul&gt;&lt;/div&gt;&lt;div&gt;&lt;br&gt;&lt;/div&gt;&lt;div&gt;&lt;br&gt;&lt;/div&gt;" style="rounded=1;whiteSpace=wrap;html=1;" parent="TMzkgg3_MQ0NlH0lSg8t-7" vertex="1">
          <mxGeometry x="603" y="270" width="530" height="560" as="geometry" />
        </mxCell>
        <mxCell id="TMzkgg3_MQ0NlH0lSg8t-3" value="&lt;b&gt;&lt;font style=&quot;font-size: 22px;&quot;&gt;Message Route Rules&lt;/font&gt;&lt;br&gt;&lt;/b&gt;" style="rounded=1;whiteSpace=wrap;html=1;" parent="TMzkgg3_MQ0NlH0lSg8t-7" vertex="1">
          <mxGeometry x="1510" y="220" width="320" height="320" as="geometry" />
        </mxCell>
        <mxCell id="TMzkgg3_MQ0NlH0lSg8t-5" value="&lt;b&gt;&lt;font style=&quot;&quot;&gt;&lt;span style=&quot;font-size: 22px;&quot;&gt;Message Claim Batch&lt;/span&gt;&lt;br&gt;&lt;font style=&quot;font-size: 18px;&quot;&gt;(Swift-Core&#39;a Erişilemezse Tekrar İstek Gönderebilme Adına Batch Yapılmalı)&lt;/font&gt;&lt;/font&gt;&lt;br&gt;&lt;/b&gt;" style="rounded=1;whiteSpace=wrap;html=1;" parent="TMzkgg3_MQ0NlH0lSg8t-7" vertex="1">
          <mxGeometry x="1760" y="1320" width="320" height="490" as="geometry" />
        </mxCell>
        <mxCell id="TMzkgg3_MQ0NlH0lSg8t-33" value="" style="endArrow=classic;html=1;rounded=0;" parent="TMzkgg3_MQ0NlH0lSg8t-7" source="DRLnUaCcKrrRja5PIx_H-3" target="TMzkgg3_MQ0NlH0lSg8t-3" edge="1">
          <mxGeometry width="50" height="50" relative="1" as="geometry">
            <mxPoint x="880" y="2330" as="sourcePoint" />
            <mxPoint x="1870" y="1645" as="targetPoint" />
          </mxGeometry>
        </mxCell>
        <mxCell id="TMzkgg3_MQ0NlH0lSg8t-49" value="" style="endArrow=classic;html=1;rounded=0;" parent="TMzkgg3_MQ0NlH0lSg8t-7" source="PyB6T44rJo8ZGuRNi5BV-1" target="DRLnUaCcKrrRja5PIx_H-3" edge="1">
          <mxGeometry width="50" height="50" relative="1" as="geometry">
            <mxPoint x="1143" y="506" as="sourcePoint" />
            <mxPoint x="1460" y="442" as="targetPoint" />
          </mxGeometry>
        </mxCell>
        <mxCell id="TMzkgg3_MQ0NlH0lSg8t-50" value="&lt;b&gt;&lt;font style=&quot;font-size: 22px;&quot;&gt;New Message&lt;/font&gt;&lt;/b&gt;" style="edgeLabel;html=1;align=center;verticalAlign=middle;resizable=0;points=[];" parent="TMzkgg3_MQ0NlH0lSg8t-49" vertex="1" connectable="0">
          <mxGeometry x="-0.1056" y="3" relative="1" as="geometry">
            <mxPoint y="1" as="offset" />
          </mxGeometry>
        </mxCell>
        <mxCell id="GEiImPKJsfuBgTwTZ-uJ-3" value="" style="endArrow=classic;html=1;rounded=0;entryX=0;entryY=0;entryDx=0;entryDy=142.5;entryPerimeter=0;exitX=1;exitY=0.75;exitDx=0;exitDy=0;" edge="1" parent="TMzkgg3_MQ0NlH0lSg8t-7" source="TMzkgg3_MQ0NlH0lSg8t-5" target="DRLnUaCcKrrRja5PIx_H-2">
          <mxGeometry width="50" height="50" relative="1" as="geometry">
            <mxPoint x="1320" y="1020" as="sourcePoint" />
            <mxPoint x="2250" y="1610" as="targetPoint" />
          </mxGeometry>
        </mxCell>
        <mxCell id="GEiImPKJsfuBgTwTZ-uJ-7" value="&lt;b style=&quot;font-size: 12px; text-wrap: wrap; background-color: rgb(251, 251, 251);&quot;&gt;&lt;font style=&quot;font-size: 22px;&quot;&gt;Message Claimed with Claim_id X Received&lt;/font&gt;&lt;/b&gt;" style="edgeLabel;html=1;align=center;verticalAlign=middle;resizable=0;points=[];" vertex="1" connectable="0" parent="GEiImPKJsfuBgTwTZ-uJ-3">
          <mxGeometry x="-0.0152" relative="1" as="geometry">
            <mxPoint as="offset" />
          </mxGeometry>
        </mxCell>
        <mxCell id="GEiImPKJsfuBgTwTZ-uJ-8" value="" style="endArrow=classic;html=1;rounded=0;entryX=0;entryY=0.75;entryDx=0;entryDy=0;" edge="1" parent="TMzkgg3_MQ0NlH0lSg8t-7" source="PyB6T44rJo8ZGuRNi5BV-1" target="TMzkgg3_MQ0NlH0lSg8t-5">
          <mxGeometry width="50" height="50" relative="1" as="geometry">
            <mxPoint x="2400" y="498" as="sourcePoint" />
            <mxPoint x="2410" y="550" as="targetPoint" />
          </mxGeometry>
        </mxCell>
        <mxCell id="GEiImPKJsfuBgTwTZ-uJ-9" value="&lt;b&gt;&lt;font style=&quot;font-size: 22px;&quot;&gt;Message Claim Response&lt;/font&gt;&lt;/b&gt;" style="edgeLabel;html=1;align=center;verticalAlign=middle;resizable=0;points=[];" vertex="1" connectable="0" parent="GEiImPKJsfuBgTwTZ-uJ-8">
          <mxGeometry x="-0.0095" y="-2" relative="1" as="geometry">
            <mxPoint as="offset" />
          </mxGeometry>
        </mxCell>
        <mxCell id="GEiImPKJsfuBgTwTZ-uJ-12" value="" style="endArrow=classic;html=1;rounded=0;" edge="1" parent="TMzkgg3_MQ0NlH0lSg8t-7" source="TMzkgg3_MQ0NlH0lSg8t-3" target="DRLnUaCcKrrRja5PIx_H-2">
          <mxGeometry width="50" height="50" relative="1" as="geometry">
            <mxPoint x="2476" y="550" as="sourcePoint" />
            <mxPoint x="2050" y="1040" as="targetPoint" />
          </mxGeometry>
        </mxCell>
        <mxCell id="GEiImPKJsfuBgTwTZ-uJ-13" value="&lt;b&gt;&lt;font style=&quot;font-size: 22px;&quot;&gt;Set status Ready to Claim or No Claim&lt;br&gt;&lt;br&gt;Create Message Route Rule Logs&lt;br&gt;( Log mesaj hangi kurallarda karar aldı)&lt;/font&gt;&lt;/b&gt;" style="edgeLabel;html=1;align=center;verticalAlign=middle;resizable=0;points=[];" vertex="1" connectable="0" parent="GEiImPKJsfuBgTwTZ-uJ-12">
          <mxGeometry x="-0.0095" y="-2" relative="1" as="geometry">
            <mxPoint as="offset" />
          </mxGeometry>
        </mxCell>
        <mxCell id="GEiImPKJsfuBgTwTZ-uJ-14" value="" style="endArrow=classic;html=1;rounded=0;" edge="1" parent="TMzkgg3_MQ0NlH0lSg8t-7" source="DRLnUaCcKrrRja5PIx_H-3" target="DRLnUaCcKrrRja5PIx_H-2">
          <mxGeometry width="50" height="50" relative="1" as="geometry">
            <mxPoint x="1330" y="1030" as="sourcePoint" />
            <mxPoint x="2260" y="1620" as="targetPoint" />
          </mxGeometry>
        </mxCell>
        <mxCell id="GEiImPKJsfuBgTwTZ-uJ-15" value="&lt;div&gt;&lt;span style=&quot;font-size: 22px;&quot;&gt;&lt;b&gt;Create Record&lt;/b&gt;&lt;/span&gt;&lt;/div&gt;&lt;div&gt;&lt;span style=&quot;font-size: 22px;&quot;&gt;&lt;b&gt;Status Waiting Route Rules&lt;/b&gt;&lt;/span&gt;&lt;/div&gt;&lt;div&gt;&lt;span style=&quot;font-size: 22px;&quot;&gt;&lt;b&gt;Message id X Read from Queue&lt;/b&gt;&lt;/span&gt;&lt;/div&gt;" style="edgeLabel;html=1;align=center;verticalAlign=middle;resizable=0;points=[];" vertex="1" connectable="0" parent="GEiImPKJsfuBgTwTZ-uJ-14">
          <mxGeometry x="-0.0152" relative="1" as="geometry">
            <mxPoint as="offset" />
          </mxGeometry>
        </mxCell>
        <mxCell id="GEiImPKJsfuBgTwTZ-uJ-16" value="" style="endArrow=classic;html=1;rounded=0;exitX=0;exitY=0;exitDx=0;exitDy=57.5;exitPerimeter=0;entryX=1;entryY=0.25;entryDx=0;entryDy=0;" edge="1" parent="TMzkgg3_MQ0NlH0lSg8t-7" source="DRLnUaCcKrrRja5PIx_H-2" target="TMzkgg3_MQ0NlH0lSg8t-5">
          <mxGeometry width="50" height="50" relative="1" as="geometry">
            <mxPoint x="2030" y="1930" as="sourcePoint" />
            <mxPoint x="2215" y="2030" as="targetPoint" />
          </mxGeometry>
        </mxCell>
        <mxCell id="GEiImPKJsfuBgTwTZ-uJ-17" value="&lt;b style=&quot;font-size: 12px; text-wrap: wrap; background-color: rgb(251, 251, 251);&quot;&gt;&lt;font style=&quot;font-size: 22px;&quot;&gt;Claim Request with &quot;Ready to Claim Status&quot; Records with Claim_id X&lt;br&gt;and set status &quot;Claimed&quot;&lt;/font&gt;&lt;/b&gt;" style="edgeLabel;html=1;align=center;verticalAlign=middle;resizable=0;points=[];" vertex="1" connectable="0" parent="GEiImPKJsfuBgTwTZ-uJ-16">
          <mxGeometry x="-0.0152" relative="1" as="geometry">
            <mxPoint as="offset" />
          </mxGeometry>
        </mxCell>
        <mxCell id="GEiImPKJsfuBgTwTZ-uJ-20" value="" style="endArrow=classic;html=1;rounded=0;exitX=0;exitY=0.25;exitDx=0;exitDy=0;" edge="1" parent="TMzkgg3_MQ0NlH0lSg8t-7" source="TMzkgg3_MQ0NlH0lSg8t-5" target="PyB6T44rJo8ZGuRNi5BV-1">
          <mxGeometry width="50" height="50" relative="1" as="geometry">
            <mxPoint x="1670" y="1470" as="sourcePoint" />
            <mxPoint x="1780" y="1619" as="targetPoint" />
          </mxGeometry>
        </mxCell>
        <mxCell id="GEiImPKJsfuBgTwTZ-uJ-21" value="&lt;b&gt;&lt;font style=&quot;font-size: 22px;&quot;&gt;Message Claim Request&lt;/font&gt;&lt;/b&gt;" style="edgeLabel;html=1;align=center;verticalAlign=middle;resizable=0;points=[];" vertex="1" connectable="0" parent="GEiImPKJsfuBgTwTZ-uJ-20">
          <mxGeometry x="-0.0095" y="-2" relative="1" as="geometry">
            <mxPoint as="offset" />
          </mxGeometry>
        </mxCell>
        <mxCell id="GEiImPKJsfuBgTwTZ-uJ-22" value="&lt;b&gt;&lt;font style=&quot;font-size: 22px;&quot;&gt;Receive Claimed Messages Batch&lt;/font&gt;&lt;br&gt;&lt;/b&gt;" style="rounded=1;whiteSpace=wrap;html=1;" vertex="1" parent="TMzkgg3_MQ0NlH0lSg8t-7">
          <mxGeometry x="1770" y="2140" width="320" height="320" as="geometry" />
        </mxCell>
        <mxCell id="GEiImPKJsfuBgTwTZ-uJ-1" value="" style="shape=cylinder3;whiteSpace=wrap;html=1;boundedLbl=1;backgroundOutline=1;size=15;rotation=90;" vertex="1" parent="TMzkgg3_MQ0NlH0lSg8t-7">
          <mxGeometry x="460" y="1810" width="538.44" height="910" as="geometry" />
        </mxCell>
        <mxCell id="GEiImPKJsfuBgTwTZ-uJ-2" value="&lt;b style=&quot;font-size: 22px;&quot;&gt;Swift-Core Message Notify Queue&lt;/b&gt;" style="text;html=1;align=center;verticalAlign=middle;whiteSpace=wrap;rounded=0;" vertex="1" parent="TMzkgg3_MQ0NlH0lSg8t-7">
          <mxGeometry x="440" y="2240" width="544.22" height="30" as="geometry" />
        </mxCell>
        <mxCell id="GEiImPKJsfuBgTwTZ-uJ-23" value="" style="endArrow=classic;html=1;rounded=0;" edge="1" parent="TMzkgg3_MQ0NlH0lSg8t-7" source="GEiImPKJsfuBgTwTZ-uJ-1" target="GEiImPKJsfuBgTwTZ-uJ-22">
          <mxGeometry width="50" height="50" relative="1" as="geometry">
            <mxPoint x="1194" y="1708" as="sourcePoint" />
            <mxPoint x="1780" y="1828" as="targetPoint" />
          </mxGeometry>
        </mxCell>
        <mxCell id="GEiImPKJsfuBgTwTZ-uJ-24" value="&lt;b&gt;&lt;font style=&quot;font-size: 22px;&quot;&gt;Receive Messages&lt;/font&gt;&lt;/b&gt;" style="edgeLabel;html=1;align=center;verticalAlign=middle;resizable=0;points=[];" vertex="1" connectable="0" parent="GEiImPKJsfuBgTwTZ-uJ-23">
          <mxGeometry x="-0.0095" y="-2" relative="1" as="geometry">
            <mxPoint as="offset" />
          </mxGeometry>
        </mxCell>
        <mxCell id="GEiImPKJsfuBgTwTZ-uJ-37" value="" style="endArrow=classic;html=1;rounded=0;" edge="1" parent="TMzkgg3_MQ0NlH0lSg8t-7" source="GEiImPKJsfuBgTwTZ-uJ-22" target="DRLnUaCcKrrRja5PIx_H-2">
          <mxGeometry width="50" height="50" relative="1" as="geometry">
            <mxPoint x="2130" y="2480" as="sourcePoint" />
            <mxPoint x="2780" y="2130" as="targetPoint" />
          </mxGeometry>
        </mxCell>
        <mxCell id="GEiImPKJsfuBgTwTZ-uJ-38" value="&lt;span style=&quot;font-size: 22px;&quot;&gt;&lt;b&gt;If there is no message create a new record &lt;br&gt;or&lt;br&gt;&lt;/b&gt;&lt;/span&gt;&lt;b style=&quot;font-size: 22px;&quot;&gt;if there is a message with status&lt;br&gt;&lt;/b&gt;&lt;span style=&quot;font-size: 22px;&quot;&gt;&lt;b&gt;&quot;Waiting Route Rules&quot;&lt;/b&gt;&lt;/span&gt;&lt;span style=&quot;font-size: 22px;&quot;&gt;&lt;b&gt;,&amp;nbsp;&lt;/b&gt;&lt;/span&gt;&lt;b style=&quot;font-size: 22px;&quot;&gt;&quot;Ready to Claim&quot;&lt;/b&gt;&lt;span style=&quot;font-size: 22px;&quot;&gt;&lt;b&gt;,&amp;nbsp;&lt;/b&gt;&lt;/span&gt;&lt;b style=&quot;font-size: 22px;&quot;&gt;&quot;No Claim&quot;, &quot;Claimed&quot;&lt;/b&gt;&lt;span style=&quot;font-size: 22px;&quot;&gt;&lt;b&gt;&amp;nbsp;-&amp;gt;&amp;nbsp;&lt;/b&gt;&lt;/span&gt;&lt;b style=&quot;font-size: 22px;&quot;&gt;&quot;Manual Received&quot;&lt;/b&gt;" style="edgeLabel;html=1;align=center;verticalAlign=middle;resizable=0;points=[];" vertex="1" connectable="0" parent="GEiImPKJsfuBgTwTZ-uJ-37">
          <mxGeometry x="-0.0095" y="-2" relative="1" as="geometry">
            <mxPoint as="offset" />
          </mxGeometry>
        </mxCell>
        <mxCell id="TMzkgg3_MQ0NlH0lSg8t-12" value="Order Layer" style="swimlane;whiteSpace=wrap;html=1;" parent="1" vertex="1">
          <mxGeometry x="3380" y="-97" width="5650" height="3020" as="geometry" />
        </mxCell>
        <mxCell id="TMzkgg3_MQ0NlH0lSg8t-16" value="&lt;b&gt;&lt;font style=&quot;font-size: 22px;&quot;&gt;DB Storage&lt;/font&gt;&lt;/b&gt;" style="shape=cylinder3;whiteSpace=wrap;html=1;boundedLbl=1;backgroundOutline=1;size=15;" parent="TMzkgg3_MQ0NlH0lSg8t-12" vertex="1">
          <mxGeometry x="2140" y="1650" width="460" height="200" as="geometry" />
        </mxCell>
        <mxCell id="TMzkgg3_MQ0NlH0lSg8t-17" value="" style="endArrow=classic;html=1;rounded=0;entryX=0;entryY=0.5;entryDx=0;entryDy=0;entryPerimeter=0;" parent="TMzkgg3_MQ0NlH0lSg8t-12" source="TMzkgg3_MQ0NlH0lSg8t-23" target="TMzkgg3_MQ0NlH0lSg8t-16" edge="1">
          <mxGeometry width="50" height="50" relative="1" as="geometry">
            <mxPoint x="2220" y="670" as="sourcePoint" />
            <mxPoint x="2270" y="620" as="targetPoint" />
          </mxGeometry>
        </mxCell>
        <mxCell id="GEiImPKJsfuBgTwTZ-uJ-29" value="&lt;b&gt;&lt;font style=&quot;font-size: 22px;&quot;&gt;Create Order with Initial Status&lt;/font&gt;&lt;/b&gt;" style="edgeLabel;html=1;align=center;verticalAlign=middle;resizable=0;points=[];" vertex="1" connectable="0" parent="TMzkgg3_MQ0NlH0lSg8t-17">
          <mxGeometry x="-0.0165" y="-1" relative="1" as="geometry">
            <mxPoint x="-1" as="offset" />
          </mxGeometry>
        </mxCell>
        <mxCell id="TMzkgg3_MQ0NlH0lSg8t-18" value="&lt;b&gt;&lt;font style=&quot;font-size: 22px;&quot;&gt;Manual Ekran&lt;/font&gt;&lt;br&gt;&lt;/b&gt;" style="rounded=1;whiteSpace=wrap;html=1;" parent="TMzkgg3_MQ0NlH0lSg8t-12" vertex="1">
          <mxGeometry x="3660" y="1817" width="320" height="320" as="geometry" />
        </mxCell>
        <mxCell id="TMzkgg3_MQ0NlH0lSg8t-21" value="&lt;b&gt;&lt;font style=&quot;font-size: 22px;&quot;&gt;STP / NonSTP Decisions (Kural setleri ürün yönetim veya başka bir ekrandan ekle, edit, sil yapılabilecek.)&lt;/font&gt;&lt;br&gt;&lt;/b&gt;" style="rounded=1;whiteSpace=wrap;html=1;" parent="TMzkgg3_MQ0NlH0lSg8t-12" vertex="1">
          <mxGeometry x="3400" y="1017" width="320" height="320" as="geometry" />
        </mxCell>
        <mxCell id="TMzkgg3_MQ0NlH0lSg8t-23" value="&lt;b&gt;&lt;font style=&quot;font-size: 22px;&quot;&gt;Order Creator&lt;br&gt;Swift Message to Business Fields Converter (Mtflo&#39;dan Swfto Converter gibi)&lt;/font&gt;&lt;br&gt;&lt;/b&gt;" style="rounded=1;whiteSpace=wrap;html=1;" parent="TMzkgg3_MQ0NlH0lSg8t-12" vertex="1">
          <mxGeometry x="490" y="1584" width="320" height="320" as="geometry" />
        </mxCell>
        <mxCell id="TMzkgg3_MQ0NlH0lSg8t-56" value="&lt;b style=&quot;font-size: 22px;&quot;&gt;Cancal Order&lt;/b&gt;" style="rounded=1;whiteSpace=wrap;html=1;" parent="TMzkgg3_MQ0NlH0lSg8t-12" vertex="1">
          <mxGeometry x="740" y="2650" width="320" height="320" as="geometry" />
        </mxCell>
        <mxCell id="TMzkgg3_MQ0NlH0lSg8t-58" value="" style="endArrow=classic;html=1;rounded=0;" parent="TMzkgg3_MQ0NlH0lSg8t-12" source="TMzkgg3_MQ0NlH0lSg8t-56" target="TMzkgg3_MQ0NlH0lSg8t-16" edge="1">
          <mxGeometry width="50" height="50" relative="1" as="geometry">
            <mxPoint x="-240" y="2581" as="sourcePoint" />
            <mxPoint x="1790" y="2469" as="targetPoint" />
          </mxGeometry>
        </mxCell>
        <mxCell id="TMzkgg3_MQ0NlH0lSg8t-19" value="&lt;b&gt;&lt;font style=&quot;font-size: 22px;&quot;&gt;Set Transaction_Reason&lt;/font&gt;&lt;br&gt;&lt;/b&gt;" style="rounded=1;whiteSpace=wrap;html=1;" parent="TMzkgg3_MQ0NlH0lSg8t-12" vertex="1">
          <mxGeometry x="2210" y="1017" width="320" height="320" as="geometry" />
        </mxCell>
        <mxCell id="yePIisrcxqecddOZeuFq-1" value="" style="endArrow=classic;html=1;rounded=0;entryX=0.25;entryY=1;entryDx=0;entryDy=0;exitX=0.145;exitY=0;exitDx=0;exitDy=4.35;exitPerimeter=0;" edge="1" parent="TMzkgg3_MQ0NlH0lSg8t-12" source="TMzkgg3_MQ0NlH0lSg8t-16" target="TMzkgg3_MQ0NlH0lSg8t-19">
          <mxGeometry width="50" height="50" relative="1" as="geometry">
            <mxPoint x="820" y="1755" as="sourcePoint" />
            <mxPoint x="2150" y="1760" as="targetPoint" />
          </mxGeometry>
        </mxCell>
        <mxCell id="yePIisrcxqecddOZeuFq-2" value="&lt;b&gt;&lt;font style=&quot;font-size: 22px;&quot;&gt;Get Initial Status&lt;/font&gt;&lt;/b&gt;" style="edgeLabel;html=1;align=center;verticalAlign=middle;resizable=0;points=[];" vertex="1" connectable="0" parent="yePIisrcxqecddOZeuFq-1">
          <mxGeometry x="-0.0165" y="-1" relative="1" as="geometry">
            <mxPoint x="-1" as="offset" />
          </mxGeometry>
        </mxCell>
        <mxCell id="yePIisrcxqecddOZeuFq-3" value="" style="endArrow=classic;html=1;rounded=0;" edge="1" parent="TMzkgg3_MQ0NlH0lSg8t-12" source="TMzkgg3_MQ0NlH0lSg8t-19" target="TMzkgg3_MQ0NlH0lSg8t-21">
          <mxGeometry width="50" height="50" relative="1" as="geometry">
            <mxPoint x="2610" y="1765" as="sourcePoint" />
            <mxPoint x="3030" y="1774" as="targetPoint" />
          </mxGeometry>
        </mxCell>
        <mxCell id="yePIisrcxqecddOZeuFq-5" value="" style="endArrow=classic;html=1;rounded=0;entryX=1;entryY=0;entryDx=0;entryDy=57.5;entryPerimeter=0;" edge="1" parent="TMzkgg3_MQ0NlH0lSg8t-12" source="TMzkgg3_MQ0NlH0lSg8t-21" target="TMzkgg3_MQ0NlH0lSg8t-16">
          <mxGeometry width="50" height="50" relative="1" as="geometry">
            <mxPoint x="3350" y="1777" as="sourcePoint" />
            <mxPoint x="3670" y="1777" as="targetPoint" />
          </mxGeometry>
        </mxCell>
        <mxCell id="yePIisrcxqecddOZeuFq-6" value="&lt;b&gt;&lt;font style=&quot;font-size: 22px;&quot;&gt;Set Manual Or STP&lt;/font&gt;&lt;/b&gt;" style="edgeLabel;html=1;align=center;verticalAlign=middle;resizable=0;points=[];" vertex="1" connectable="0" parent="yePIisrcxqecddOZeuFq-5">
          <mxGeometry x="-0.0165" y="-1" relative="1" as="geometry">
            <mxPoint x="-1" as="offset" />
          </mxGeometry>
        </mxCell>
        <mxCell id="yePIisrcxqecddOZeuFq-7" value="&lt;b&gt;&lt;font style=&quot;font-size: 22px;&quot;&gt;Create STP Transfer (ONNSTRF&#39;deki gibi muhasebeye hazır hale getirme)&lt;/font&gt;&lt;br&gt;&lt;/b&gt;" style="rounded=1;whiteSpace=wrap;html=1;" vertex="1" parent="TMzkgg3_MQ0NlH0lSg8t-12">
          <mxGeometry x="2663" y="2617" width="320" height="320" as="geometry" />
        </mxCell>
        <mxCell id="yePIisrcxqecddOZeuFq-10" value="" style="endArrow=classic;html=1;rounded=0;exitX=0.75;exitY=1;exitDx=0;exitDy=0;entryX=0.855;entryY=0;entryDx=0;entryDy=4.35;entryPerimeter=0;" edge="1" parent="TMzkgg3_MQ0NlH0lSg8t-12" source="TMzkgg3_MQ0NlH0lSg8t-19" target="TMzkgg3_MQ0NlH0lSg8t-16">
          <mxGeometry width="50" height="50" relative="1" as="geometry">
            <mxPoint x="2588" y="1660" as="sourcePoint" />
            <mxPoint x="2960" y="1857" as="targetPoint" />
          </mxGeometry>
        </mxCell>
        <mxCell id="yePIisrcxqecddOZeuFq-11" value="&lt;b&gt;&lt;font style=&quot;font-size: 22px;&quot;&gt;Set Transaction_Reason if we can&lt;/font&gt;&lt;/b&gt;" style="edgeLabel;html=1;align=center;verticalAlign=middle;resizable=0;points=[];" vertex="1" connectable="0" parent="yePIisrcxqecddOZeuFq-10">
          <mxGeometry x="-0.0165" y="-1" relative="1" as="geometry">
            <mxPoint x="-1" as="offset" />
          </mxGeometry>
        </mxCell>
        <mxCell id="yePIisrcxqecddOZeuFq-15" value="&lt;b&gt;&lt;font style=&quot;font-size: 22px;&quot;&gt;Create Manual Transfer&amp;nbsp;&lt;/font&gt;&lt;/b&gt;&lt;b&gt;&lt;font style=&quot;font-size: 22px;&quot;&gt;(HMN_API_SWMUH gibi muhasebeye hazır hale getirme)&lt;br&gt;(Büyük ihtimal&amp;nbsp;&lt;/font&gt;&lt;/b&gt;&lt;b style=&quot;background-color: initial;&quot;&gt;&lt;font style=&quot;font-size: 22px;&quot;&gt;Statüye göre 1den fazla transfer yaratılabilir.)&lt;/font&gt;&lt;/b&gt;" style="rounded=1;whiteSpace=wrap;html=1;" vertex="1" parent="TMzkgg3_MQ0NlH0lSg8t-12">
          <mxGeometry x="3670" y="2627" width="320" height="320" as="geometry" />
        </mxCell>
        <mxCell id="yePIisrcxqecddOZeuFq-16" value="" style="endArrow=classic;html=1;rounded=0;" edge="1" parent="TMzkgg3_MQ0NlH0lSg8t-12" source="TMzkgg3_MQ0NlH0lSg8t-21" target="yePIisrcxqecddOZeuFq-7">
          <mxGeometry width="50" height="50" relative="1" as="geometry">
            <mxPoint x="3410" y="1275" as="sourcePoint" />
            <mxPoint x="2610" y="1718" as="targetPoint" />
          </mxGeometry>
        </mxCell>
        <mxCell id="yePIisrcxqecddOZeuFq-18" value="" style="endArrow=classic;html=1;rounded=0;" edge="1" parent="TMzkgg3_MQ0NlH0lSg8t-12" source="TMzkgg3_MQ0NlH0lSg8t-21" target="TMzkgg3_MQ0NlH0lSg8t-18">
          <mxGeometry width="50" height="50" relative="1" as="geometry">
            <mxPoint x="3483" y="1347" as="sourcePoint" />
            <mxPoint x="2967" y="2297" as="targetPoint" />
          </mxGeometry>
        </mxCell>
        <mxCell id="yePIisrcxqecddOZeuFq-19" value="" style="endArrow=classic;html=1;rounded=0;" edge="1" parent="TMzkgg3_MQ0NlH0lSg8t-12" source="TMzkgg3_MQ0NlH0lSg8t-18" target="TMzkgg3_MQ0NlH0lSg8t-19">
          <mxGeometry width="50" height="50" relative="1" as="geometry">
            <mxPoint x="3639" y="1347" as="sourcePoint" />
            <mxPoint x="3801" y="1727" as="targetPoint" />
          </mxGeometry>
        </mxCell>
        <mxCell id="yePIisrcxqecddOZeuFq-23" value="&lt;span style=&quot;font-size: 22px;&quot;&gt;&lt;b&gt;Set or Edit Transaction_Reason&lt;/b&gt;&lt;/span&gt;" style="edgeLabel;html=1;align=center;verticalAlign=middle;resizable=0;points=[];" vertex="1" connectable="0" parent="yePIisrcxqecddOZeuFq-19">
          <mxGeometry x="0.0034" y="2" relative="1" as="geometry">
            <mxPoint as="offset" />
          </mxGeometry>
        </mxCell>
        <mxCell id="yePIisrcxqecddOZeuFq-26" value="&lt;b&gt;&lt;font style=&quot;font-size: 22px;&quot;&gt;Transaction_Reason Beslemeleri&lt;/font&gt;&lt;br&gt;&lt;/b&gt;" style="rounded=1;whiteSpace=wrap;html=1;" vertex="1" parent="TMzkgg3_MQ0NlH0lSg8t-12">
          <mxGeometry x="2210" y="587" width="320" height="320" as="geometry" />
        </mxCell>
        <mxCell id="yePIisrcxqecddOZeuFq-24" value="" style="endArrow=classic;html=1;rounded=0;" edge="1" parent="TMzkgg3_MQ0NlH0lSg8t-12" source="TMzkgg3_MQ0NlH0lSg8t-19" target="yePIisrcxqecddOZeuFq-26">
          <mxGeometry width="50" height="50" relative="1" as="geometry">
            <mxPoint x="3670" y="1899" as="sourcePoint" />
            <mxPoint x="2890" y="1737" as="targetPoint" />
          </mxGeometry>
        </mxCell>
        <mxCell id="yePIisrcxqecddOZeuFq-25" value="&lt;span style=&quot;font-size: 22px;&quot;&gt;&lt;b&gt;Transaction_Reason Beslemeleri&lt;/b&gt;&lt;/span&gt;" style="edgeLabel;html=1;align=center;verticalAlign=middle;resizable=0;points=[];" vertex="1" connectable="0" parent="yePIisrcxqecddOZeuFq-24">
          <mxGeometry x="0.0034" y="2" relative="1" as="geometry">
            <mxPoint as="offset" />
          </mxGeometry>
        </mxCell>
        <mxCell id="yePIisrcxqecddOZeuFq-27" value="" style="endArrow=classic;html=1;rounded=0;" edge="1" parent="TMzkgg3_MQ0NlH0lSg8t-12" source="TMzkgg3_MQ0NlH0lSg8t-18" target="yePIisrcxqecddOZeuFq-15">
          <mxGeometry width="50" height="50" relative="1" as="geometry">
            <mxPoint x="3622" y="1347" as="sourcePoint" />
            <mxPoint x="3778" y="1827" as="targetPoint" />
          </mxGeometry>
        </mxCell>
        <mxCell id="yePIisrcxqecddOZeuFq-28" value="&lt;span style=&quot;font-size: 22px;&quot;&gt;&lt;b&gt;Onay Alındıktan Sonra&lt;/b&gt;&lt;/span&gt;" style="edgeLabel;html=1;align=center;verticalAlign=middle;resizable=0;points=[];" vertex="1" connectable="0" parent="yePIisrcxqecddOZeuFq-27">
          <mxGeometry x="0.0036" relative="1" as="geometry">
            <mxPoint y="1" as="offset" />
          </mxGeometry>
        </mxCell>
        <mxCell id="TMzkgg3_MQ0NlH0lSg8t-22" value="" style="endArrow=classic;html=1;rounded=0;exitX=1;exitY=0.5;exitDx=0;exitDy=0;exitPerimeter=0;" parent="1" source="DRLnUaCcKrrRja5PIx_H-2" target="TMzkgg3_MQ0NlH0lSg8t-23" edge="1">
          <mxGeometry width="50" height="50" relative="1" as="geometry">
            <mxPoint x="3960" y="1590" as="sourcePoint" />
            <mxPoint x="2630" y="1930" as="targetPoint" />
          </mxGeometry>
        </mxCell>
        <mxCell id="TMzkgg3_MQ0NlH0lSg8t-24" value="&lt;b&gt;&lt;font style=&quot;font-size: 22px;&quot;&gt;Message Release&lt;/font&gt;&lt;br&gt;&lt;/b&gt;&lt;div&gt;&lt;b&gt;&lt;font style=&quot;font-size: 22px;&quot;&gt;&lt;br&gt;&lt;/font&gt;&lt;/b&gt;&lt;/div&gt;" style="rounded=1;whiteSpace=wrap;html=1;" parent="1" vertex="1">
          <mxGeometry x="3060" y="2940" width="320" height="320" as="geometry" />
        </mxCell>
        <mxCell id="TMzkgg3_MQ0NlH0lSg8t-25" value="" style="endArrow=classic;html=1;rounded=0;" parent="1" source="TMzkgg3_MQ0NlH0lSg8t-24" target="PyB6T44rJo8ZGuRNi5BV-1" edge="1">
          <mxGeometry width="50" height="50" relative="1" as="geometry">
            <mxPoint x="1160" y="1640" as="sourcePoint" />
            <mxPoint x="1510" y="1240" as="targetPoint" />
          </mxGeometry>
        </mxCell>
        <mxCell id="TMzkgg3_MQ0NlH0lSg8t-27" value="" style="endArrow=classic;html=1;rounded=0;" parent="1" source="TMzkgg3_MQ0NlH0lSg8t-24" target="DRLnUaCcKrrRja5PIx_H-2" edge="1">
          <mxGeometry width="50" height="50" relative="1" as="geometry">
            <mxPoint x="2200" y="2500" as="sourcePoint" />
            <mxPoint x="2170" y="2190" as="targetPoint" />
          </mxGeometry>
        </mxCell>
        <mxCell id="TMzkgg3_MQ0NlH0lSg8t-55" value="&lt;font style=&quot;font-size: 22px;&quot;&gt;If Message doesn&#39;t have Order, just update Prepare Status&lt;/font&gt;" style="edgeLabel;html=1;align=center;verticalAlign=middle;resizable=0;points=[];" parent="TMzkgg3_MQ0NlH0lSg8t-27" vertex="1" connectable="0">
          <mxGeometry x="0.0333" y="7" relative="1" as="geometry">
            <mxPoint x="-1" y="-1" as="offset" />
          </mxGeometry>
        </mxCell>
        <mxCell id="TMzkgg3_MQ0NlH0lSg8t-54" value="" style="endArrow=classic;html=1;rounded=0;" parent="1" source="TMzkgg3_MQ0NlH0lSg8t-16" target="TMzkgg3_MQ0NlH0lSg8t-24" edge="1">
          <mxGeometry width="50" height="50" relative="1" as="geometry">
            <mxPoint x="2986" y="2600" as="sourcePoint" />
            <mxPoint x="2393" y="1940" as="targetPoint" />
          </mxGeometry>
        </mxCell>
        <mxCell id="TMzkgg3_MQ0NlH0lSg8t-57" value="" style="endArrow=classic;html=1;rounded=0;" parent="1" source="TMzkgg3_MQ0NlH0lSg8t-24" target="TMzkgg3_MQ0NlH0lSg8t-56" edge="1">
          <mxGeometry width="50" height="50" relative="1" as="geometry">
            <mxPoint x="5680" y="1999" as="sourcePoint" />
            <mxPoint x="3290" y="2712" as="targetPoint" />
          </mxGeometry>
        </mxCell>
        <mxCell id="TMzkgg3_MQ0NlH0lSg8t-15" value="&lt;b&gt;&lt;font style=&quot;font-size: 22px;&quot;&gt;Validations&lt;/font&gt;&lt;br&gt;&lt;br&gt;&lt;/b&gt;&lt;div&gt;&lt;br&gt;&lt;/div&gt;&lt;div&gt;&lt;br&gt;&lt;/div&gt;" style="rounded=1;whiteSpace=wrap;html=1;" parent="1" vertex="1">
          <mxGeometry x="3770" y="-1640" width="1200" height="940" as="geometry" />
        </mxCell>
        <mxCell id="TMzkgg3_MQ0NlH0lSg8t-69" value="&lt;b&gt;&lt;font style=&quot;font-size: 22px;&quot;&gt;Ekran Validasyonları&lt;/font&gt;&lt;br&gt;&lt;/b&gt;" style="rounded=1;whiteSpace=wrap;html=1;" parent="1" vertex="1">
          <mxGeometry x="4590" y="-1550" width="320" height="320" as="geometry" />
        </mxCell>
        <mxCell id="TMzkgg3_MQ0NlH0lSg8t-70" value="&lt;b&gt;&lt;font style=&quot;font-size: 22px;&quot;&gt;Gelen Ödeme Validasyonları&lt;/font&gt;&lt;br&gt;&lt;/b&gt;" style="rounded=1;whiteSpace=wrap;html=1;" parent="1" vertex="1">
          <mxGeometry x="4230" y="-1570" width="320" height="320" as="geometry" />
        </mxCell>
        <mxCell id="TMzkgg3_MQ0NlH0lSg8t-71" value="&lt;b&gt;&lt;font style=&quot;font-size: 22px;&quot;&gt;Kota Validasyonları&lt;/font&gt;&lt;br&gt;&lt;/b&gt;" style="rounded=1;whiteSpace=wrap;html=1;" parent="1" vertex="1">
          <mxGeometry x="3830" y="-1560" width="320" height="320" as="geometry" />
        </mxCell>
        <mxCell id="TMzkgg3_MQ0NlH0lSg8t-72" value="Order Layer" style="swimlane;whiteSpace=wrap;html=1;" parent="1" vertex="1">
          <mxGeometry x="3280" y="3390" width="5900" height="3720" as="geometry" />
        </mxCell>
        <mxCell id="TMzkgg3_MQ0NlH0lSg8t-74" value="&lt;b&gt;&lt;font style=&quot;font-size: 22px;&quot;&gt;DB Storage&lt;/font&gt;&lt;/b&gt;" style="shape=cylinder3;whiteSpace=wrap;html=1;boundedLbl=1;backgroundOutline=1;size=15;" parent="TMzkgg3_MQ0NlH0lSg8t-72" vertex="1">
          <mxGeometry x="2140" y="1650" width="460" height="200" as="geometry" />
        </mxCell>
        <mxCell id="yePIisrcxqecddOZeuFq-30" value="&lt;span style=&quot;font-size: 22px;&quot;&gt;&lt;b&gt;Repeate Last Validate Time&lt;/b&gt;&lt;/span&gt;" style="rounded=1;whiteSpace=wrap;html=1;" vertex="1" parent="TMzkgg3_MQ0NlH0lSg8t-72">
          <mxGeometry x="2180" y="800" width="320" height="320" as="geometry" />
        </mxCell>
        <mxCell id="yePIisrcxqecddOZeuFq-35" value="&lt;span style=&quot;font-size: 22px;&quot;&gt;&lt;b&gt;Create Transfer (Type by Type)&lt;/b&gt;&lt;/span&gt;" style="rounded=1;whiteSpace=wrap;html=1;" vertex="1" parent="TMzkgg3_MQ0NlH0lSg8t-72">
          <mxGeometry x="3200" y="800" width="320" height="320" as="geometry" />
        </mxCell>
        <mxCell id="yePIisrcxqecddOZeuFq-36" value="" style="endArrow=classic;html=1;rounded=0;" edge="1" parent="TMzkgg3_MQ0NlH0lSg8t-72" source="yePIisrcxqecddOZeuFq-35" target="TMzkgg3_MQ0NlH0lSg8t-74">
          <mxGeometry width="50" height="50" relative="1" as="geometry">
            <mxPoint x="3885" y="-530" as="sourcePoint" />
            <mxPoint x="3425" y="810" as="targetPoint" />
          </mxGeometry>
        </mxCell>
        <mxCell id="yePIisrcxqecddOZeuFq-37" value="&lt;span style=&quot;font-size: 22px;&quot;&gt;&lt;b&gt;İnsert&lt;/b&gt;&lt;/span&gt;" style="edgeLabel;html=1;align=center;verticalAlign=middle;resizable=0;points=[];" vertex="1" connectable="0" parent="yePIisrcxqecddOZeuFq-36">
          <mxGeometry x="0.0036" relative="1" as="geometry">
            <mxPoint y="1" as="offset" />
          </mxGeometry>
        </mxCell>
        <mxCell id="yePIisrcxqecddOZeuFq-38" value="" style="endArrow=classic;html=1;rounded=0;" edge="1" parent="TMzkgg3_MQ0NlH0lSg8t-72" source="TMzkgg3_MQ0NlH0lSg8t-74" target="yePIisrcxqecddOZeuFq-30">
          <mxGeometry width="50" height="50" relative="1" as="geometry">
            <mxPoint x="3210" y="1098" as="sourcePoint" />
            <mxPoint x="2505" y="1660" as="targetPoint" />
          </mxGeometry>
        </mxCell>
        <mxCell id="yePIisrcxqecddOZeuFq-39" value="&lt;span style=&quot;font-size: 22px;&quot;&gt;&lt;b&gt;İnsert&lt;/b&gt;&lt;/span&gt;" style="edgeLabel;html=1;align=center;verticalAlign=middle;resizable=0;points=[];" vertex="1" connectable="0" parent="yePIisrcxqecddOZeuFq-38">
          <mxGeometry x="0.0036" relative="1" as="geometry">
            <mxPoint y="1" as="offset" />
          </mxGeometry>
        </mxCell>
        <mxCell id="yePIisrcxqecddOZeuFq-41" value="&lt;span style=&quot;font-size: 22px;&quot;&gt;&lt;b&gt;Accounting&lt;/b&gt;&lt;/span&gt;" style="rounded=1;whiteSpace=wrap;html=1;" vertex="1" parent="TMzkgg3_MQ0NlH0lSg8t-72">
          <mxGeometry x="1290" y="850" width="320" height="320" as="geometry" />
        </mxCell>
        <mxCell id="yePIisrcxqecddOZeuFq-42" value="" style="endArrow=classic;html=1;rounded=0;" edge="1" parent="TMzkgg3_MQ0NlH0lSg8t-72" source="yePIisrcxqecddOZeuFq-30" target="yePIisrcxqecddOZeuFq-41">
          <mxGeometry width="50" height="50" relative="1" as="geometry">
            <mxPoint x="2376" y="1660" as="sourcePoint" />
            <mxPoint x="2356" y="1130" as="targetPoint" />
          </mxGeometry>
        </mxCell>
        <mxCell id="yePIisrcxqecddOZeuFq-44" value="&lt;span style=&quot;font-size: 22px;&quot;&gt;&lt;b&gt;Repeat Validations&lt;/b&gt;&lt;/span&gt;" style="rounded=1;whiteSpace=wrap;html=1;" vertex="1" parent="TMzkgg3_MQ0NlH0lSg8t-72">
          <mxGeometry x="2170" y="280" width="320" height="320" as="geometry" />
        </mxCell>
        <mxCell id="yePIisrcxqecddOZeuFq-46" value="" style="endArrow=classic;html=1;rounded=0;exitX=0.7;exitY=0.006;exitDx=0;exitDy=0;exitPerimeter=0;entryX=0.75;entryY=1;entryDx=0;entryDy=0;" edge="1" parent="TMzkgg3_MQ0NlH0lSg8t-72" source="yePIisrcxqecddOZeuFq-30" target="yePIisrcxqecddOZeuFq-44">
          <mxGeometry width="50" height="50" relative="1" as="geometry">
            <mxPoint x="2190" y="979" as="sourcePoint" />
            <mxPoint x="1620" y="1011" as="targetPoint" />
          </mxGeometry>
        </mxCell>
        <mxCell id="yePIisrcxqecddOZeuFq-48" value="" style="endArrow=classic;html=1;rounded=0;exitX=0.25;exitY=1;exitDx=0;exitDy=0;entryX=0.25;entryY=0;entryDx=0;entryDy=0;" edge="1" parent="TMzkgg3_MQ0NlH0lSg8t-72" source="yePIisrcxqecddOZeuFq-44" target="yePIisrcxqecddOZeuFq-30">
          <mxGeometry width="50" height="50" relative="1" as="geometry">
            <mxPoint x="2190" y="979" as="sourcePoint" />
            <mxPoint x="1620" y="1011" as="targetPoint" />
          </mxGeometry>
        </mxCell>
        <mxCell id="TMzkgg3_MQ0NlH0lSg8t-51" value="" style="endArrow=classic;html=1;rounded=0;" parent="1" source="TMzkgg3_MQ0NlH0lSg8t-28" target="GEiImPKJsfuBgTwTZ-uJ-1" edge="1">
          <mxGeometry width="50" height="50" relative="1" as="geometry">
            <mxPoint x="1092" y="2300" as="sourcePoint" />
            <mxPoint x="1603" y="1927" as="targetPoint" />
          </mxGeometry>
        </mxCell>
        <mxCell id="TMzkgg3_MQ0NlH0lSg8t-28" value="&lt;b&gt;&lt;font style=&quot;font-size: 22px;&quot;&gt;Manual Message Claim&lt;/font&gt;&lt;/b&gt;" style="rounded=1;whiteSpace=wrap;html=1;" parent="1" vertex="1">
          <mxGeometry x="-1840" y="2060" width="1320" height="880" as="geometry" />
        </mxCell>
        <mxCell id="TMzkgg3_MQ0NlH0lSg8t-36" value="&lt;font style=&quot;font-size: 22px;&quot;&gt;&lt;b&gt;Birden Fazla Claim Eden Olması Nedeniyle Alınamayanlar&lt;/b&gt;&lt;/font&gt;" style="rounded=1;whiteSpace=wrap;html=1;" parent="1" vertex="1">
          <mxGeometry x="-1710" y="2570" width="320" height="320" as="geometry" />
        </mxCell>
        <mxCell id="TMzkgg3_MQ0NlH0lSg8t-37" value="&lt;font style=&quot;font-size: 22px;&quot;&gt;Rule Set’imize Girmediği için Alınmayanlar&lt;/font&gt;" style="rounded=1;whiteSpace=wrap;html=1;" parent="1" vertex="1">
          <mxGeometry x="-1330" y="2560" width="320" height="320" as="geometry" />
        </mxCell>
        <mxCell id="TMzkgg3_MQ0NlH0lSg8t-38" value="&lt;b&gt;&lt;font style=&quot;font-size: 22px;&quot;&gt;Release Edilip Geri Manuel Alınanlar&lt;/font&gt;&lt;/b&gt;&lt;div style=&quot;font-size: 16px;&quot;&gt;&lt;b&gt;&lt;font style=&quot;font-size: 16px;&quot;&gt;- DB Storage’da Kaydı Olabilir.&lt;/font&gt;&lt;/b&gt;&lt;/div&gt;&lt;div style=&quot;font-size: 16px;&quot;&gt;&lt;font style=&quot;font-size: 16px;&quot;&gt;&lt;b&gt;&lt;font style=&quot;font-size: 16px;&quot;&gt;-&amp;nbsp;&lt;/font&gt;&lt;/b&gt;&lt;span style=&quot;background-color: initial;&quot;&gt;DB Storage’da Kaydı Varsa Status Update&lt;/span&gt;&lt;/font&gt;&lt;/div&gt;" style="rounded=1;whiteSpace=wrap;html=1;" parent="1" vertex="1">
          <mxGeometry x="-950" y="2560" width="320" height="320" as="geometry" />
        </mxCell>
        <mxCell id="TMzkgg3_MQ0NlH0lSg8t-4" value="&lt;b&gt;&lt;font style=&quot;font-size: 22px;&quot;&gt;Incoming Swift Migration Batch&lt;/font&gt;&lt;/b&gt;" style="rounded=1;whiteSpace=wrap;html=1;" parent="1" vertex="1">
          <mxGeometry x="2000" y="-840" width="810" height="320" as="geometry" />
        </mxCell>
        <mxCell id="TMzkgg3_MQ0NlH0lSg8t-41" value="" style="endArrow=classic;html=1;rounded=0;" parent="1" target="TMzkgg3_MQ0NlH0lSg8t-4" edge="1">
          <mxGeometry width="50" height="50" relative="1" as="geometry">
            <mxPoint x="1370" y="-560" as="sourcePoint" />
            <mxPoint x="2021" y="969" as="targetPoint" />
          </mxGeometry>
        </mxCell>
        <mxCell id="JWvQbKPiSfuubzmx_wGm-1" value="&lt;b&gt;&lt;font style=&quot;font-size: 22px;&quot;&gt;Route Rules Want to Own the Message&lt;/font&gt;&lt;/b&gt;" style="edgeLabel;html=1;align=center;verticalAlign=middle;resizable=0;points=[];" vertex="1" connectable="0" parent="TMzkgg3_MQ0NlH0lSg8t-41">
          <mxGeometry x="-0.0775" y="1" relative="1" as="geometry">
            <mxPoint as="offset" />
          </mxGeometry>
        </mxCell>
        <mxCell id="TMzkgg3_MQ0NlH0lSg8t-42" value="" style="endArrow=classic;html=1;rounded=0;exitX=0.75;exitY=1;exitDx=0;exitDy=0;" parent="1" source="TMzkgg3_MQ0NlH0lSg8t-4" edge="1">
          <mxGeometry width="50" height="50" relative="1" as="geometry">
            <mxPoint x="793" y="726" as="sourcePoint" />
            <mxPoint x="1580" y="-350" as="targetPoint" />
          </mxGeometry>
        </mxCell>
        <mxCell id="TMzkgg3_MQ0NlH0lSg8t-45" value="&lt;b&gt;&lt;font style=&quot;font-size: 22px;&quot;&gt;Message Claim Edilebilir Statüsünü Setle&lt;/font&gt;&lt;/b&gt;" style="edgeLabel;html=1;align=center;verticalAlign=middle;resizable=0;points=[];" parent="TMzkgg3_MQ0NlH0lSg8t-42" vertex="1" connectable="0">
          <mxGeometry x="-0.0095" y="-2" relative="1" as="geometry">
            <mxPoint as="offset" />
          </mxGeometry>
        </mxCell>
        <mxCell id="GEiImPKJsfuBgTwTZ-uJ-10" value="" style="endArrow=classic;html=1;rounded=0;exitX=0.25;exitY=1;exitDx=0;exitDy=0;" edge="1" parent="1" source="TMzkgg3_MQ0NlH0lSg8t-4">
          <mxGeometry width="50" height="50" relative="1" as="geometry">
            <mxPoint x="2093" y="770" as="sourcePoint" />
            <mxPoint x="1470" y="-440" as="targetPoint" />
          </mxGeometry>
        </mxCell>
        <mxCell id="GEiImPKJsfuBgTwTZ-uJ-11" value="&lt;b&gt;&lt;font style=&quot;font-size: 22px;&quot;&gt;Message Monolith&#39;de Statüsünü Setle&lt;/font&gt;&lt;/b&gt;" style="edgeLabel;html=1;align=center;verticalAlign=middle;resizable=0;points=[];" vertex="1" connectable="0" parent="GEiImPKJsfuBgTwTZ-uJ-10">
          <mxGeometry x="-0.0095" y="-2" relative="1" as="geometry">
            <mxPoint as="offset" />
          </mxGeometry>
        </mxCell>
        <mxCell id="GEiImPKJsfuBgTwTZ-uJ-25" value="" style="endArrow=classic;html=1;rounded=0;" edge="1" parent="1">
          <mxGeometry width="50" height="50" relative="1" as="geometry">
            <mxPoint x="1860" y="-100" as="sourcePoint" />
            <mxPoint x="2510" y="-450" as="targetPoint" />
          </mxGeometry>
        </mxCell>
        <mxCell id="GEiImPKJsfuBgTwTZ-uJ-26" value="&lt;b style=&quot;font-size: 22px;&quot;&gt;If the message with status&lt;br&gt;&lt;/b&gt;&lt;span style=&quot;font-size: 22px;&quot;&gt;&lt;b&gt;&quot;Waiting Route Rules&quot; -&amp;gt;&amp;nbsp;&lt;/b&gt;&lt;/span&gt;&lt;b style=&quot;font-size: 22px;&quot;&gt;&quot;Waiting Migraiton Check&quot;&lt;/b&gt;&lt;span style=&quot;font-size: 22px;&quot;&gt;&lt;b&gt;&lt;br&gt;&quot;Route Rules No Claim&quot; -&amp;gt; &quot;Waiting Migraiton Check&quot;&lt;br&gt;&quot;Waiting Migration Check&quot; -&amp;gt;&amp;nbsp;&lt;/b&gt;&lt;/span&gt;&lt;b style=&quot;font-size: 22px;&quot;&gt;&quot;Waiting Migraiton Check&quot;&lt;/b&gt;&lt;span style=&quot;font-size: 22px;&quot;&gt;&lt;b&gt;&lt;br&gt;&quot;Monolith&#39;de&quot; -&amp;gt; &quot;&lt;/b&gt;&lt;/span&gt;&lt;b style=&quot;font-size: 22px;&quot;&gt;monolith&#39;de ama micro manual denendi&quot;&amp;nbsp;&lt;/b&gt;&lt;b style=&quot;font-size: 22px;&quot;&gt;(iş birimine harmonin işlediği mesajı manuel sahiplenmek istiyorsun bildirilmeli)&lt;/b&gt;&lt;span style=&quot;font-size: 22px;&quot;&gt;&lt;b&gt;&lt;br&gt;&quot;Claimed&quot; -&amp;gt; &quot;Received&quot;&lt;br&gt;&lt;br&gt;If there is no message&lt;br&gt;create a new record with status&amp;nbsp;&lt;/b&gt;&lt;/span&gt;&lt;b style=&quot;font-size: 22px;&quot;&gt;&quot;Waiting Migraiton Check&quot;&lt;/b&gt;" style="edgeLabel;html=1;align=center;verticalAlign=middle;resizable=0;points=[];" vertex="1" connectable="0" parent="GEiImPKJsfuBgTwTZ-uJ-25">
          <mxGeometry x="-0.0095" y="-2" relative="1" as="geometry">
            <mxPoint as="offset" />
          </mxGeometry>
        </mxCell>
        <mxCell id="TMzkgg3_MQ0NlH0lSg8t-84" value="&lt;b&gt;&lt;font style=&quot;font-size: 22px;&quot;&gt;Set Departmant&lt;/font&gt;&lt;br&gt;&lt;/b&gt;" style="rounded=1;whiteSpace=wrap;html=1;" parent="1" vertex="1">
          <mxGeometry x="5400" y="-620" width="320" height="320" as="geometry" />
        </mxCell>
        <mxCell id="yePIisrcxqecddOZeuFq-31" value="" style="endArrow=classic;html=1;rounded=0;" edge="1" parent="1" source="yePIisrcxqecddOZeuFq-15" target="yePIisrcxqecddOZeuFq-35">
          <mxGeometry width="50" height="50" relative="1" as="geometry">
            <mxPoint x="7030" y="3050" as="sourcePoint" />
            <mxPoint x="6890" y="4170" as="targetPoint" />
          </mxGeometry>
        </mxCell>
        <mxCell id="yePIisrcxqecddOZeuFq-32" value="&lt;span style=&quot;font-size: 22px;&quot;&gt;&lt;b&gt;Create Transfer&lt;/b&gt;&lt;/span&gt;" style="edgeLabel;html=1;align=center;verticalAlign=middle;resizable=0;points=[];" vertex="1" connectable="0" parent="yePIisrcxqecddOZeuFq-31">
          <mxGeometry x="0.0036" relative="1" as="geometry">
            <mxPoint y="1" as="offset" />
          </mxGeometry>
        </mxCell>
        <mxCell id="yePIisrcxqecddOZeuFq-33" value="" style="endArrow=classic;html=1;rounded=0;" edge="1" parent="1" source="yePIisrcxqecddOZeuFq-7" target="yePIisrcxqecddOZeuFq-35">
          <mxGeometry width="50" height="50" relative="1" as="geometry">
            <mxPoint x="7187" y="2860" as="sourcePoint" />
            <mxPoint x="6390" y="4190" as="targetPoint" />
          </mxGeometry>
        </mxCell>
        <mxCell id="yePIisrcxqecddOZeuFq-34" value="&lt;span style=&quot;font-size: 22px;&quot;&gt;&lt;b&gt;Create Transfer&lt;/b&gt;&lt;/span&gt;" style="edgeLabel;html=1;align=center;verticalAlign=middle;resizable=0;points=[];" vertex="1" connectable="0" parent="yePIisrcxqecddOZeuFq-33">
          <mxGeometry x="0.0036" relative="1" as="geometry">
            <mxPoint y="1" as="offset" />
          </mxGeometry>
        </mxCell>
      </root>
    </mxGraphModel>
  </diagram>
  <diagram id="WYvY-8pTqQe5EJnmJQTX" name="StatuMap">
    <mxGraphModel dx="1500" dy="956" grid="1" gridSize="10" guides="1" tooltips="1" connect="1" arrows="1" fold="1" page="1" pageScale="1" pageWidth="827" pageHeight="1169" math="0" shadow="0">
      <root>
        <mxCell id="0" />
        <mxCell id="1" parent="0" />
        <mxCell id="0sZzk7YYzTEKNNrwgMtL-1" value="INITIAL" style="rounded=1;whiteSpace=wrap;html=1;" vertex="1" parent="1">
          <mxGeometry x="750" y="940" width="120" height="60" as="geometry" />
        </mxCell>
        <mxCell id="0sZzk7YYzTEKNNrwgMtL-2" value="COMPLETED" style="rounded=1;whiteSpace=wrap;html=1;" vertex="1" parent="1">
          <mxGeometry x="1330" y="1500" width="120" height="60" as="geometry" />
        </mxCell>
        <mxCell id="0sZzk7YYzTEKNNrwgMtL-3" value="&lt;div&gt;&lt;br&gt;&lt;/div&gt;&lt;div&gt;&lt;div&gt;ACCOUNTING&lt;/div&gt;&lt;/div&gt;" style="rounded=1;whiteSpace=wrap;html=1;" vertex="1" parent="1">
          <mxGeometry x="1100" y="1490" width="120" height="60" as="geometry" />
        </mxCell>
        <mxCell id="0sZzk7YYzTEKNNrwgMtL-4" value="&lt;div&gt;&lt;br&gt;&lt;/div&gt;&lt;div&gt;&lt;div&gt;CANCELLED&lt;/div&gt;&lt;/div&gt;" style="rounded=1;whiteSpace=wrap;html=1;" vertex="1" parent="1">
          <mxGeometry x="380" y="1170" width="120" height="60" as="geometry" />
        </mxCell>
        <mxCell id="0sZzk7YYzTEKNNrwgMtL-5" value="&lt;div&gt;SECOND APPROVAL&lt;/div&gt;" style="rounded=1;whiteSpace=wrap;html=1;" vertex="1" parent="1">
          <mxGeometry x="760" y="1510" width="120" height="60" as="geometry" />
        </mxCell>
        <mxCell id="0sZzk7YYzTEKNNrwgMtL-6" value="&lt;div&gt;&lt;br&gt;&lt;/div&gt;&lt;div&gt;&lt;div&gt;APPROVAL&lt;/div&gt;&lt;/div&gt;" style="rounded=1;whiteSpace=wrap;html=1;" vertex="1" parent="1">
          <mxGeometry x="740" y="1330" width="120" height="60" as="geometry" />
        </mxCell>
        <mxCell id="0sZzk7YYzTEKNNrwgMtL-7" value="&lt;div&gt;&lt;br&gt;&lt;/div&gt;&lt;div&gt;&lt;div&gt;BRANCH_WAITING&lt;/div&gt;&lt;/div&gt;" style="rounded=1;whiteSpace=wrap;html=1;" vertex="1" parent="1">
          <mxGeometry x="1040" y="1169" width="120" height="60" as="geometry" />
        </mxCell>
        <mxCell id="0sZzk7YYzTEKNNrwgMtL-8" value="&lt;div&gt;&lt;br&gt;&lt;/div&gt;&lt;div&gt;&lt;div&gt;GM_RETURN ?&lt;/div&gt;&lt;/div&gt;" style="rounded=1;whiteSpace=wrap;html=1;" vertex="1" parent="1">
          <mxGeometry x="1370" y="1150" width="120" height="60" as="geometry" />
        </mxCell>
        <mxCell id="0sZzk7YYzTEKNNrwgMtL-9" value="GM_WAITING" style="rounded=1;whiteSpace=wrap;html=1;" vertex="1" parent="1">
          <mxGeometry x="1290" y="980" width="120" height="60" as="geometry" />
        </mxCell>
        <mxCell id="0sZzk7YYzTEKNNrwgMtL-10" value="" style="endArrow=classic;html=1;rounded=0;" edge="1" parent="1" source="0sZzk7YYzTEKNNrwgMtL-1" target="0sZzk7YYzTEKNNrwgMtL-9">
          <mxGeometry width="50" height="50" relative="1" as="geometry">
            <mxPoint x="230" y="1510" as="sourcePoint" />
            <mxPoint x="280" y="1460" as="targetPoint" />
          </mxGeometry>
        </mxCell>
        <mxCell id="0sZzk7YYzTEKNNrwgMtL-12" value="" style="endArrow=classic;html=1;rounded=0;" edge="1" parent="1" source="0sZzk7YYzTEKNNrwgMtL-5" target="0sZzk7YYzTEKNNrwgMtL-1">
          <mxGeometry width="50" height="50" relative="1" as="geometry">
            <mxPoint x="240" y="1520" as="sourcePoint" />
            <mxPoint x="290" y="1470" as="targetPoint" />
          </mxGeometry>
        </mxCell>
        <mxCell id="0sZzk7YYzTEKNNrwgMtL-14" value="" style="endArrow=classic;html=1;rounded=0;" edge="1" parent="1" source="0sZzk7YYzTEKNNrwgMtL-1" target="0sZzk7YYzTEKNNrwgMtL-3">
          <mxGeometry width="50" height="50" relative="1" as="geometry">
            <mxPoint x="260" y="1540" as="sourcePoint" />
            <mxPoint x="310" y="1490" as="targetPoint" />
          </mxGeometry>
        </mxCell>
        <mxCell id="0sZzk7YYzTEKNNrwgMtL-15" value="" style="endArrow=classic;html=1;rounded=0;" edge="1" parent="1" source="0sZzk7YYzTEKNNrwgMtL-1" target="0sZzk7YYzTEKNNrwgMtL-7">
          <mxGeometry width="50" height="50" relative="1" as="geometry">
            <mxPoint x="270" y="1550" as="sourcePoint" />
            <mxPoint x="320" y="1500" as="targetPoint" />
          </mxGeometry>
        </mxCell>
        <mxCell id="0sZzk7YYzTEKNNrwgMtL-16" value="" style="endArrow=classic;html=1;rounded=0;" edge="1" parent="1" source="0sZzk7YYzTEKNNrwgMtL-1" target="0sZzk7YYzTEKNNrwgMtL-4">
          <mxGeometry width="50" height="50" relative="1" as="geometry">
            <mxPoint x="280" y="1560" as="sourcePoint" />
            <mxPoint x="330" y="1510" as="targetPoint" />
          </mxGeometry>
        </mxCell>
        <mxCell id="0sZzk7YYzTEKNNrwgMtL-17" value="" style="endArrow=classic;html=1;rounded=0;" edge="1" parent="1" source="0sZzk7YYzTEKNNrwgMtL-1" target="0sZzk7YYzTEKNNrwgMtL-6">
          <mxGeometry width="50" height="50" relative="1" as="geometry">
            <mxPoint x="290" y="1570" as="sourcePoint" />
            <mxPoint x="340" y="1520" as="targetPoint" />
          </mxGeometry>
        </mxCell>
        <mxCell id="0sZzk7YYzTEKNNrwgMtL-18" value="" style="endArrow=classic;html=1;rounded=0;" edge="1" parent="1" source="0sZzk7YYzTEKNNrwgMtL-1" target="0sZzk7YYzTEKNNrwgMtL-5">
          <mxGeometry width="50" height="50" relative="1" as="geometry">
            <mxPoint x="300" y="1580" as="sourcePoint" />
            <mxPoint x="350" y="1530" as="targetPoint" />
          </mxGeometry>
        </mxCell>
        <mxCell id="0sZzk7YYzTEKNNrwgMtL-35" value="" style="endArrow=classic;html=1;rounded=0;" edge="1" parent="1" source="0sZzk7YYzTEKNNrwgMtL-6" target="0sZzk7YYzTEKNNrwgMtL-5">
          <mxGeometry width="50" height="50" relative="1" as="geometry">
            <mxPoint x="250" y="1530" as="sourcePoint" />
            <mxPoint x="300" y="1480" as="targetPoint" />
          </mxGeometry>
        </mxCell>
        <mxCell id="0sZzk7YYzTEKNNrwgMtL-37" value="" style="endArrow=classic;html=1;rounded=0;" edge="1" parent="1" source="0sZzk7YYzTEKNNrwgMtL-6" target="0sZzk7YYzTEKNNrwgMtL-3">
          <mxGeometry width="50" height="50" relative="1" as="geometry">
            <mxPoint x="260" y="1540" as="sourcePoint" />
            <mxPoint x="310" y="1490" as="targetPoint" />
          </mxGeometry>
        </mxCell>
        <mxCell id="0sZzk7YYzTEKNNrwgMtL-38" value="" style="endArrow=classic;html=1;rounded=0;" edge="1" parent="1" source="0sZzk7YYzTEKNNrwgMtL-6" target="0sZzk7YYzTEKNNrwgMtL-4">
          <mxGeometry width="50" height="50" relative="1" as="geometry">
            <mxPoint x="270" y="1550" as="sourcePoint" />
            <mxPoint x="320" y="1500" as="targetPoint" />
          </mxGeometry>
        </mxCell>
        <mxCell id="0sZzk7YYzTEKNNrwgMtL-39" value="" style="endArrow=classic;html=1;rounded=0;" edge="1" parent="1" source="0sZzk7YYzTEKNNrwgMtL-6" target="0sZzk7YYzTEKNNrwgMtL-1">
          <mxGeometry width="50" height="50" relative="1" as="geometry">
            <mxPoint x="270" y="1550" as="sourcePoint" />
            <mxPoint x="320" y="1500" as="targetPoint" />
          </mxGeometry>
        </mxCell>
        <mxCell id="0sZzk7YYzTEKNNrwgMtL-41" value="" style="endArrow=classic;html=1;rounded=0;" edge="1" parent="1" source="0sZzk7YYzTEKNNrwgMtL-5" target="0sZzk7YYzTEKNNrwgMtL-3">
          <mxGeometry width="50" height="50" relative="1" as="geometry">
            <mxPoint x="280" y="1560" as="sourcePoint" />
            <mxPoint x="330" y="1510" as="targetPoint" />
          </mxGeometry>
        </mxCell>
        <mxCell id="0sZzk7YYzTEKNNrwgMtL-42" value="" style="endArrow=classic;html=1;rounded=0;" edge="1" parent="1" source="0sZzk7YYzTEKNNrwgMtL-5" target="0sZzk7YYzTEKNNrwgMtL-7">
          <mxGeometry width="50" height="50" relative="1" as="geometry">
            <mxPoint x="290" y="1570" as="sourcePoint" />
            <mxPoint x="340" y="1520" as="targetPoint" />
          </mxGeometry>
        </mxCell>
        <mxCell id="0sZzk7YYzTEKNNrwgMtL-43" value="" style="endArrow=classic;html=1;rounded=0;" edge="1" parent="1" source="0sZzk7YYzTEKNNrwgMtL-3" target="0sZzk7YYzTEKNNrwgMtL-4">
          <mxGeometry width="50" height="50" relative="1" as="geometry">
            <mxPoint x="290" y="1570" as="sourcePoint" />
            <mxPoint x="340" y="1520" as="targetPoint" />
          </mxGeometry>
        </mxCell>
        <mxCell id="0sZzk7YYzTEKNNrwgMtL-44" value="" style="endArrow=classic;html=1;rounded=0;" edge="1" parent="1" source="0sZzk7YYzTEKNNrwgMtL-7" target="0sZzk7YYzTEKNNrwgMtL-3">
          <mxGeometry width="50" height="50" relative="1" as="geometry">
            <mxPoint x="300" y="1580" as="sourcePoint" />
            <mxPoint x="350" y="1530" as="targetPoint" />
          </mxGeometry>
        </mxCell>
        <mxCell id="0sZzk7YYzTEKNNrwgMtL-45" value="" style="endArrow=classic;html=1;rounded=0;" edge="1" parent="1" source="0sZzk7YYzTEKNNrwgMtL-9" target="0sZzk7YYzTEKNNrwgMtL-3">
          <mxGeometry width="50" height="50" relative="1" as="geometry">
            <mxPoint x="300" y="1580" as="sourcePoint" />
            <mxPoint x="350" y="1530" as="targetPoint" />
          </mxGeometry>
        </mxCell>
        <mxCell id="0sZzk7YYzTEKNNrwgMtL-46" value="" style="endArrow=classic;html=1;rounded=0;" edge="1" parent="1" source="0sZzk7YYzTEKNNrwgMtL-7" target="0sZzk7YYzTEKNNrwgMtL-8">
          <mxGeometry width="50" height="50" relative="1" as="geometry">
            <mxPoint x="310" y="1590" as="sourcePoint" />
            <mxPoint x="360" y="1540" as="targetPoint" />
          </mxGeometry>
        </mxCell>
        <mxCell id="0sZzk7YYzTEKNNrwgMtL-47" value="" style="endArrow=classic;html=1;rounded=0;" edge="1" parent="1" source="0sZzk7YYzTEKNNrwgMtL-9" target="0sZzk7YYzTEKNNrwgMtL-5">
          <mxGeometry width="50" height="50" relative="1" as="geometry">
            <mxPoint x="310" y="1590" as="sourcePoint" />
            <mxPoint x="360" y="1540" as="targetPoint" />
          </mxGeometry>
        </mxCell>
        <mxCell id="0sZzk7YYzTEKNNrwgMtL-48" value="" style="endArrow=classic;html=1;rounded=0;" edge="1" parent="1" source="0sZzk7YYzTEKNNrwgMtL-9" target="0sZzk7YYzTEKNNrwgMtL-4">
          <mxGeometry width="50" height="50" relative="1" as="geometry">
            <mxPoint x="320" y="1600" as="sourcePoint" />
            <mxPoint x="370" y="1550" as="targetPoint" />
          </mxGeometry>
        </mxCell>
        <mxCell id="0sZzk7YYzTEKNNrwgMtL-49" value="" style="endArrow=classic;html=1;rounded=0;" edge="1" parent="1" source="0sZzk7YYzTEKNNrwgMtL-5" target="0sZzk7YYzTEKNNrwgMtL-4">
          <mxGeometry width="50" height="50" relative="1" as="geometry">
            <mxPoint x="240" y="1520" as="sourcePoint" />
            <mxPoint x="290" y="1470" as="targetPoint" />
          </mxGeometry>
        </mxCell>
        <mxCell id="0sZzk7YYzTEKNNrwgMtL-50" value="" style="endArrow=classic;html=1;rounded=0;" edge="1" parent="1" source="0sZzk7YYzTEKNNrwgMtL-5" target="0sZzk7YYzTEKNNrwgMtL-6">
          <mxGeometry width="50" height="50" relative="1" as="geometry">
            <mxPoint x="250" y="1530" as="sourcePoint" />
            <mxPoint x="300" y="1480" as="targetPoint" />
          </mxGeometry>
        </mxCell>
        <mxCell id="0sZzk7YYzTEKNNrwgMtL-51" value="" style="endArrow=classic;html=1;rounded=0;" edge="1" parent="1" source="0sZzk7YYzTEKNNrwgMtL-8" target="0sZzk7YYzTEKNNrwgMtL-7">
          <mxGeometry width="50" height="50" relative="1" as="geometry">
            <mxPoint x="250" y="1530" as="sourcePoint" />
            <mxPoint x="300" y="1480" as="targetPoint" />
          </mxGeometry>
        </mxCell>
        <mxCell id="0sZzk7YYzTEKNNrwgMtL-52" value="" style="endArrow=classic;html=1;rounded=0;" edge="1" parent="1" source="0sZzk7YYzTEKNNrwgMtL-6" target="0sZzk7YYzTEKNNrwgMtL-7">
          <mxGeometry width="50" height="50" relative="1" as="geometry">
            <mxPoint x="260" y="1540" as="sourcePoint" />
            <mxPoint x="310" y="1490" as="targetPoint" />
          </mxGeometry>
        </mxCell>
        <mxCell id="0sZzk7YYzTEKNNrwgMtL-53" value="" style="endArrow=classic;html=1;rounded=0;" edge="1" parent="1" source="0sZzk7YYzTEKNNrwgMtL-3" target="0sZzk7YYzTEKNNrwgMtL-2">
          <mxGeometry width="50" height="50" relative="1" as="geometry">
            <mxPoint x="260" y="1540" as="sourcePoint" />
            <mxPoint x="310" y="1490" as="targetPoint" />
          </mxGeometry>
        </mxCell>
        <mxCell id="0sZzk7YYzTEKNNrwgMtL-54" value="" style="endArrow=classic;html=1;rounded=0;" edge="1" parent="1" source="0sZzk7YYzTEKNNrwgMtL-7" target="0sZzk7YYzTEKNNrwgMtL-1">
          <mxGeometry width="50" height="50" relative="1" as="geometry">
            <mxPoint x="270" y="1550" as="sourcePoint" />
            <mxPoint x="320" y="1500" as="targetPoint" />
          </mxGeometry>
        </mxCell>
        <mxCell id="0sZzk7YYzTEKNNrwgMtL-55" value="" style="endArrow=classic;html=1;rounded=0;" edge="1" parent="1" source="0sZzk7YYzTEKNNrwgMtL-8" target="0sZzk7YYzTEKNNrwgMtL-9">
          <mxGeometry width="50" height="50" relative="1" as="geometry">
            <mxPoint x="270" y="1550" as="sourcePoint" />
            <mxPoint x="320" y="1500" as="targetPoint" />
          </mxGeometry>
        </mxCell>
        <mxCell id="0sZzk7YYzTEKNNrwgMtL-56" value="" style="endArrow=classic;html=1;rounded=0;" edge="1" parent="1" source="0sZzk7YYzTEKNNrwgMtL-7" target="0sZzk7YYzTEKNNrwgMtL-4">
          <mxGeometry width="50" height="50" relative="1" as="geometry">
            <mxPoint x="280" y="1560" as="sourcePoint" />
            <mxPoint x="330" y="1510" as="targetPoint" />
          </mxGeometry>
        </mxCell>
        <mxCell id="0sZzk7YYzTEKNNrwgMtL-57" value="" style="endArrow=classic;html=1;rounded=0;" edge="1" parent="1" source="0sZzk7YYzTEKNNrwgMtL-9" target="0sZzk7YYzTEKNNrwgMtL-6">
          <mxGeometry width="50" height="50" relative="1" as="geometry">
            <mxPoint x="280" y="1560" as="sourcePoint" />
            <mxPoint x="330" y="1510" as="targetPoint" />
          </mxGeometry>
        </mxCell>
        <mxCell id="0sZzk7YYzTEKNNrwgMtL-58" value="" style="endArrow=classic;html=1;rounded=0;" edge="1" parent="1" source="0sZzk7YYzTEKNNrwgMtL-8" target="0sZzk7YYzTEKNNrwgMtL-4">
          <mxGeometry width="50" height="50" relative="1" as="geometry">
            <mxPoint x="290" y="1570" as="sourcePoint" />
            <mxPoint x="340" y="1520" as="targetPoint" />
          </mxGeometry>
        </mxCell>
      </root>
    </mxGraphModel>
  </diagram>
</mxfile>
